PathFileType	4	(X/Y/Z)	Kane _Static
DataRate	CameraRate	NumFrames	NumMarkers	Units	OrigDataRate	OrigDataStartFrame	OrigNumFrames
250	250	5	66	mm	250	288	200
Frame#	Time	LASI			RASI			LPSI			RPSI			C7			T10			CLAV			STRN			RTH1			RTH2			RTH3			RTB1			RTB2			RTB3			RCAL			RMT1			RMT2			LTH1			LTH2			LTH3			LTB1			LTB2			LTB3			LCAL			LMT1			LMT2			RLFC			RMFC			LLFC			LMFC			RMMAL			RLMAL			LMMAL			LLMAL			G_LCAL			G_LMT1			G_LMT2			G_RCAL			G_RMT1			G_RMT2			LAJC			LKJC			OPelvis			RAJC			RKJC			Reg_LHJC			Reg_RHJC			SACR			fun_LAJC			fun_LHJC			fun_LKJC			fun_LLAJC			fun_LLKJC			fun_LMAJC			fun_LMKJC			fun_RAJC			fun_RHJC			fun_RKJC			fun_RLAJC			fun_RLKJC			fun_RMAJC			fun_RMKJC			RHJC			LHJC			G_RAJC			G_LAJC		
		X1	Y1	Z1	X2	Y2	Z2	X3	Y3	Z3	X4	Y4	Z4	X5	Y5	Z5	X6	Y6	Z6	X7	Y7	Z7	X8	Y8	Z8	X9	Y9	Z9	X10	Y10	Z10	X11	Y11	Z11	X12	Y12	Z12	X13	Y13	Z13	X14	Y14	Z14	X15	Y15	Z15	X16	Y16	Z16	X17	Y17	Z17	X18	Y18	Z18	X19	Y19	Z19	X20	Y20	Z20	X21	Y21	Z21	X22	Y22	Z22	X23	Y23	Z23	X24	Y24	Z24	X25	Y25	Z25	X26	Y26	Z26	X27	Y27	Z27	X28	Y28	Z28	X29	Y29	Z29	X30	Y30	Z30	X31	Y31	Z31	X32	Y32	Z32	X33	Y33	Z33	X34	Y34	Z34	X35	Y35	Z35	X36	Y36	Z36	X37	Y37	Z37	X38	Y38	Z38	X39	Y39	Z39	X40	Y40	Z40	X41	Y41	Z41	X42	Y42	Z42	X43	Y43	Z43	X44	Y44	Z44	X45	Y45	Z45	X46	Y46	Z46	X47	Y47	Z47	X48	Y48	Z48	X49	Y49	Z49	X50	Y50	Z50	X51	Y51	Z51	X52	Y52	Z52	X53	Y53	Z53	X54	Y54	Z54	X55	Y55	Z55	X56	Y56	Z56	X57	Y57	Z57	X58	Y58	Z58	X59	Y59	Z59	X60	Y60	Z60	X61	Y61	Z61	X62	Y62	Z62	X63	Y63	Z63	X64	Y64	Z64	X65	Y65	Z65	X66	Y66	Z66	
277	1.108	539.576286	1041.823292	-666.819963	538.730853	1040.622534	-461.429632	367.264450	1109.715577	-619.476011	366.005316	1103.986653	-507.969330	378.166041	1540.669276	-568.520011	357.282309	1301.696987	-564.878418	513.384078	1493.389795	-564.882679	581.782721	1322.151853	-561.750501	462.389088	899.102656	-391.150063	558.770098	796.343491	-459.855645	470.752395	695.442887	-389.115763	465.737735	411.807301	-482.420443	409.999310	330.952496	-378.619242	433.197175	220.771785	-462.183711	312.004989	 56.226028	-437.912503	553.295078	 60.303404	-431.341030	527.497349	 56.638276	-352.471962	428.292175	862.491927	-748.626664	533.688359	752.316989	-713.928391	414.845411	664.056852	-739.291775	456.331654	416.226879	-670.680813	383.984486	337.083186	-764.642647	421.809914	221.442066	-682.942918	301.796813	 59.457039	-703.162569	547.530291	 54.852366	-701.379723	515.647621	 52.810718	-794.820318	466.684403	502.733335	-414.844967	479.570650	489.605965	-517.445825	433.310421	511.323716	-729.236132	449.358937	509.283683	-627.634608	413.505377	106.654802	-472.131611	392.593508	107.998551	-384.805027	423.788433	118.102945	-676.795542	376.869026	108.739747	-758.951859	301.796813	  0.000000	-703.162569	547.530291	  0.000000	-701.379723	515.647621	  0.000000	-794.820318	312.004989	  0.000000	-437.912503	553.295078	  0.000000	-431.341030	527.497349	  0.000000	-352.471962	400.328729	113.421346	-717.873701	441.334679	510.303700	-678.435370	539.153566	1041.222902	-564.124801	403.049443	107.326677	-428.468319	473.127526	496.169650	-466.145396	469.902600	997.657538	-634.413237	469.843050	996.643624	-494.534398	366.634886	1106.851119	-563.722672	384.203996	118.223549	-709.212164	460.463060	953.338347	-663.761662	441.334679	510.303699	-678.435369	371.761417	114.206537	-756.657949	433.310421	511.323716	-729.236132	396.646575	122.240561	-661.766389	449.358937	509.283683	-627.634608	395.772273	103.576556	-430.153321	460.920045	949.888365	-475.601522	473.127525	496.169648	-466.145392	384.324359	100.338070	-386.667341	466.684403	502.733335	-414.844967	407.220187	106.815044	-473.639301	479.570650	489.605965	-517.445825	460.920045	949.888365	-475.601522	460.463060	953.338347	-663.761662	403.049443	  0.000000	-428.468319	400.328729	  0.000000	-717.873701	
278	1.112	539.563724	1041.827586	-666.830820	538.722476	1040.616696	-461.433841	367.247920	1109.719249	-619.469218	365.995349	1103.986888	-507.962955	378.169290	1540.686769	-568.496876	357.273635	1301.695853	-564.865873	513.388662	1493.380219	-564.856139	581.764883	1322.134622	-561.748061	462.381315	899.100902	-391.153064	558.760807	796.343537	-459.861806	470.750025	695.440032	-389.116358	465.737517	411.806305	-482.422939	410.003786	330.951419	-378.620235	433.197441	220.770764	-462.184691	312.005323	 56.225856	-437.911315	553.295438	 60.303517	-431.341175	527.497801	 56.638482	-352.473040	428.271368	862.489580	-748.626694	533.671907	752.322374	-713.930552	414.835143	664.055322	-739.292219	456.332422	416.226490	-670.681740	383.984853	337.081621	-764.643732	421.810006	221.441626	-682.943465	301.796642	 59.457284	-703.163023	547.529827	 54.853184	-701.379706	515.647723	 52.811237	-794.820611	466.685428	502.731026	-414.842542	479.566675	489.602576	-517.443888	433.307554	511.322867	-729.237333	449.357361	509.283405	-627.636006	413.510686	106.659353	-472.135309	392.592906	107.998251	-384.805106	423.787930	118.102300	-676.795672	376.867949	108.740165	-758.952428	301.796642	  0.000000	-703.163023	547.529827	  0.000000	-701.379706	515.647723	  0.000000	-794.820611	312.005323	  0.000000	-437.911315	553.295438	  0.000000	-431.341175	527.497801	  0.000000	-352.473040	400.327939	113.421232	-717.874050	441.332457	510.303136	-678.436670	539.143097	1041.222130	-564.132333	403.051796	107.328802	-428.470207	473.126051	496.166801	-466.143215	469.886609	997.662250	-634.419555	469.835070	996.639439	-494.540766	366.621637	1106.853073	-563.716088	384.203696	118.222872	-709.212601	460.446381	953.344466	-663.769972	441.332457	510.303135	-678.436669	371.761105	114.205761	-756.658725	433.307554	511.322867	-729.237333	396.646287	122.239981	-661.766488	449.357361	509.283405	-627.636006	395.774584	103.575822	-430.155803	460.911514	949.883527	-475.610037	473.126050	496.166800	-466.143211	384.328001	100.337232	-386.667305	466.685428	502.731026	-414.842542	407.221166	106.814412	-473.644299	479.566675	489.602576	-517.443888	460.911514	949.883527	-475.610037	460.446381	953.344466	-663.769972	403.051796	  0.000000	-428.470207	400.327939	  0.000000	-717.874050	
279	1.116	539.551781	1041.830975	-666.841369	538.714996	1040.610296	-461.437813	367.233434	1109.723875	-619.461870	365.986951	1103.987926	-507.955920	378.173557	1540.704327	-568.473952	357.267036	1301.694799	-564.852004	513.393496	1493.370661	-564.830184	581.748170	1322.117797	-561.745372	462.374034	899.099050	-391.155959	558.751794	796.343275	-459.867890	470.747561	695.437026	-389.116979	465.737085	411.805340	-482.425363	410.007902	330.950442	-378.621229	433.197700	220.769884	-462.185658	312.005498	 56.225810	-437.910117	553.295742	 60.303602	-431.341322	527.498253	 56.638685	-352.474091	428.250611	862.487265	-748.626607	533.655125	752.327336	-713.932611	414.824344	664.053858	-739.292522	456.332628	416.226254	-670.682773	383.984721	337.080127	-764.644856	421.809755	221.441280	-682.943964	301.796434	 59.457499	-703.163490	547.529347	 54.854093	-701.379717	515.647793	 52.811776	-794.820914	466.685833	502.728622	-414.840285	479.562112	489.599123	-517.442119	433.303688	511.321987	-729.238383	449.354800	509.283059	-627.637255	413.515775	106.663764	-472.138893	392.592306	107.997980	-384.805191	423.787403	118.101750	-676.795972	376.866673	108.740622	-758.953077	301.796434	  0.000000	-703.163490	547.529347	  0.000000	-701.379717	515.647793	  0.000000	-794.820914	312.005498	  0.000000	-437.910117	553.295742	  0.000000	-431.341322	527.498253	  0.000000	-352.474091	400.327038	113.421186	-717.874524	441.329244	510.302523	-678.437819	539.133386	1041.220625	-564.139594	403.054041	107.330872	-428.472041	473.123973	496.163872	-466.141202	469.870889	997.666798	-634.425379	469.827687	996.635263	-494.546642	366.610195	1106.855905	-563.708897	384.203133	118.222245	-709.213035	460.429546	953.350444	-663.777691	441.329244	510.302522	-678.437819	371.760512	114.204985	-756.659521	433.303688	511.321987	-729.238383	396.645753	122.239503	-661.766559	449.354800	509.283059	-627.637255	395.776902	103.575121	-430.158180	460.903065	949.878846	-475.617957	473.123971	496.163871	-466.141199	384.331573	100.336427	-386.667259	466.685833	502.728622	-414.840285	407.222230	106.813817	-473.649100	479.562112	489.599123	-517.442119	460.903065	949.878846	-475.617957	460.429546	953.350444	-663.777691	403.054041	  0.000000	-428.472041	400.327038	  0.000000	-717.874524	
280	1.12	539.540458	1041.833451	-666.851589	538.708466	1040.603352	-461.441536	367.220991	1109.729434	-619.453970	365.980121	1103.989754	-507.948259	378.178945	1540.721962	-568.451212	357.262497	1301.693842	-564.836820	513.398595	1493.361105	-564.804791	581.732581	1322.101341	-561.742411	462.367227	899.097100	-391.158731	558.743064	796.342711	-459.873862	470.745018	695.433878	-389.117615	465.736470	411.804408	-482.427711	410.011671	330.949568	-378.622226	433.197966	220.769143	-462.186616	312.005509	 56.225896	-437.908921	553.295990	 60.303649	-431.341471	527.498702	 56.638880	-352.475109	428.229950	862.484983	-748.626393	533.638057	752.331870	-713.934559	414.813061	664.052451	-739.292676	456.332303	416.226161	-670.683898	383.984123	337.078708	-764.646015	421.809180	221.441026	-682.944416	301.796190	 59.457680	-703.163966	547.528853	 54.855086	-701.379755	515.647828	 52.812330	-794.821224	466.685667	502.726122	-414.838191	479.557033	489.595610	-517.440512	433.298872	511.321070	-729.239277	449.351303	509.282640	-627.638352	413.520624	106.668011	-472.142349	392.591714	107.997743	-384.805285	423.786847	118.101292	-676.796432	376.865211	108.741113	-758.953798	301.796190	  0.000000	-703.163966	547.528853	  0.000000	-701.379755	515.647828	  0.000000	-794.821224	312.005509	  0.000000	-437.908921	553.295990	  0.000000	-431.341471	527.498702	  0.000000	-352.475109	400.326029	113.421203	-717.875115	441.325088	510.301855	-678.438815	539.124459	1041.218392	-564.146565	403.056169	107.332878	-428.473816	473.121350	496.160866	-466.139351	469.855477	997.671161	-634.430687	469.820924	996.631113	-494.552000	366.600559	1106.859599	-563.701116	384.202321	118.221669	-709.213466	460.412589	953.356256	-663.784788	441.325088	510.301855	-678.438814	371.759657	114.204213	-756.660334	433.298872	511.321070	-729.239277	396.644984	122.239125	-661.766608	449.351303	509.282640	-627.638352	395.779224	103.574456	-430.160445	460.894737	949.874337	-475.625252	473.121348	496.160864	-466.139348	384.335068	100.335655	-386.667204	466.685667	502.726122	-414.838191	407.223380	106.813258	-473.653683	479.557033	489.595610	-517.440512	460.894737	949.874337	-475.625252	460.412589	953.356256	-663.784788	403.056169	  0.000000	-428.473816	400.326029	  0.000000	-717.875115	
281	1.124	539.529753	1041.835009	-666.861461	538.702937	1040.595888	-461.444996	367.210587	1109.735904	-619.445521	365.974854	1103.992359	-507.940005	378.185562	1540.739681	-568.428621	357.259999	1301.692999	-564.820336	513.403985	1493.351532	-564.779936	581.718116	1322.085218	-561.739155	462.360876	899.095054	-391.161364	558.734624	796.341851	-459.879689	470.742410	695.430600	-389.118254	465.735704	411.803509	-482.429977	410.015101	330.948797	-378.623227	433.198253	220.768535	-462.187569	312.005351	 56.226118	-437.907742	553.296182	 60.303647	-431.341621	527.499151	 56.639063	-352.476092	428.209427	862.482738	-748.626034	533.620748	752.335975	-713.936391	414.801342	664.051092	-739.292672	456.331485	416.226203	-670.685099	383.983098	337.077369	-764.647207	421.808304	221.440859	-682.944820	301.795911	 59.457822	-703.164451	547.528342	 54.856154	-701.379819	515.647828	 52.812894	-794.821538	466.684978	502.723527	-414.836252	479.551502	489.592046	-517.439056	433.293160	511.320114	-729.240014	449.346929	509.282139	-627.639294	413.525215	106.672073	-472.145663	392.591133	107.997544	-384.805394	423.786257	118.100925	-676.797042	376.863576	108.741633	-758.954580	301.795911	  0.000000	-703.164451	547.528342	  0.000000	-701.379819	515.647828	  0.000000	-794.821538	312.005351	  0.000000	-437.907742	553.296182	  0.000000	-431.341621	527.499151	  0.000000	-352.476092	400.324917	113.421279	-717.875811	441.320044	510.301127	-678.439654	539.116343	1041.215439	-564.153231	403.058174	107.334809	-428.475527	473.118240	496.157786	-466.137654	469.840406	997.675316	-634.435458	469.814803	996.627004	-494.556821	366.592723	1106.864136	-563.692764	384.201279	118.221146	-709.213895	460.395541	953.361875	-663.791233	441.320044	510.301126	-678.439654	371.758564	114.203450	-756.661161	433.293160	511.320114	-729.240014	396.643993	122.238842	-661.766640	449.346929	509.282139	-627.639294	395.781545	103.573826	-430.162589	460.886572	949.870014	-475.631891	473.118238	496.157784	-466.137651	384.338477	100.334918	-386.667145	466.684978	502.723527	-414.836252	407.224613	106.812735	-473.658031	479.551502	489.592046	-517.439056	460.886572	949.870014	-475.631891	460.395541	953.361875	-663.791233	403.058174	  0.000000	-428.475527	400.324917	  0.000000	-717.875811	
